<?xml version="1.0" encoding="utf-8"?>
<!-- Generator: Adobe Illustrator 23.0.2, SVG Export Plug-In . SVG Version: 6.00 Build 0)  -->
<svg version="1.1" id="Layer_1" xmlns="http://www.w3.org/2000/svg" xmlns:xlink="http://www.w3.org/1999/xlink" x="0px" y="0px"
	 viewBox="0 0 116.2 116.2" style="enable-background:new 0 0 116.2 116.2;" xml:space="preserve">
<style type="text/css">
	.st0{fill:#C4C7CA;}
	.st1{clip-path:url(#SVGID_2_);fill:#FFFFFF;}
	.st2{clip-path:url(#SVGID_2_);fill:#C4C7CA;}
</style>
<path class="st0" d="M58,114.8c-31.3,0-56.7-25.4-56.7-56.7S26.7,1.4,58,1.4s56.7,25.4,56.7,56.7S89.2,114.8,58,114.8z"/>
<g>
	<defs>
		<rect id="SVGID_1_" x="24.7" y="25.6" width="67" height="67"/>
	</defs>
	<clipPath id="SVGID_2_">
		<use xlink:href="#SVGID_1_"  style="overflow:visible;"/>
	</clipPath>
	<path class="st1" d="M78.8,25.6H37.5c-7.2,0-12.9,5.7-12.9,12.9v41.2c0,7.2,5.7,12.9,12.9,12.9h41.2c7.2,0,12.9-5.7,12.9-12.9V38.5
		C91.6,31.3,85.9,25.6,78.8,25.6"/>
	<path class="st2" d="M83.9,38.6v0.5c0,3.1-2.6,5.7-5.7,5.7h-0.1c-3.1,0-5.7-2.6-5.7-5.7v0c0-3.1,2.6-5.7,5.7-5.7h0.5
		C81.6,33.3,83.9,35.7,83.9,38.6"/>
	<path class="st2" d="M48.7,52.2c2-2.9,5.7-4.9,9.4-4.9s7.4,2,9.4,4.9c1.4,2,2.3,4.3,2.3,6.9c0,6.6-5.4,11.7-11.7,11.7
		c-6.3,0-11.7-5.2-11.7-11.7C46.4,56.5,47.3,54.2,48.7,52.2"/>
</g>
</svg>
