<?xml version="1.0" encoding="utf-8"?>
<!-- Generator: Adobe Illustrator 23.0.2, SVG Export Plug-In . SVG Version: 6.00 Build 0)  -->
<svg version="1.1" id="Layer_1" xmlns="http://www.w3.org/2000/svg" xmlns:xlink="http://www.w3.org/1999/xlink" x="0px" y="0px"
	 viewBox="0 0 116.2 116.2" style="enable-background:new 0 0 116.2 116.2;" xml:space="preserve">
<style type="text/css">
	.st0{fill:#C4C7CA;}
	.st1{fill:#FFFFFF;}
</style>
<path class="st0" d="M58,114.7C26.7,114.7,1.3,89.3,1.3,58S26.7,1.3,58,1.3s56.7,25.4,56.7,56.7S89.2,114.7,58,114.7z"/>
<path class="st1" d="M92.8,39.3c-2.5,1.1-5.1,1.8-7.9,2.2c2.8-1.7,5-4.4,6.1-7.6c-2.7,1.6-5.6,2.7-8.8,3.3
	c-2.5-2.7-6.1-4.3-10.1-4.3c-7.6,0-13.8,6.2-13.8,13.8c0,1.1,0.1,2.1,0.3,3.1C47.2,49.2,37,43.7,30.2,35.4c-1.2,2-1.9,4.4-1.9,6.9
	c0,4.8,2.4,9,6.1,11.5c-2.3-0.1-4.4-0.7-6.2-1.7c0,0.1,0,0.1,0,0.2c0,6.7,4.8,12.3,11.1,13.5c-1.2,0.3-2.4,0.5-3.6,0.5
	c-0.9,0-1.8-0.1-2.6-0.2c1.8,5.5,6.8,9.5,12.9,9.6c-4.7,3.7-10.7,5.9-17.1,5.9c-1.1,0-2.2-0.1-3.3-0.2c6.1,3.9,13.4,6.2,21.2,6.2
	c25.4,0,39.3-21,39.3-39.3c0-0.6,0-1.2,0-1.8C88.6,44.5,90.9,42.1,92.8,39.3z"/>
</svg>
